<svg width="15" height="13" viewBox="0 0 15 13" fill="none" xmlns="http://www.w3.org/2000/svg">
  <path d="M9.19696 10.4095C9.22776 10.8679 8.76379 11.4408 7.91704 11.4977C7.07029 11.5546 6.53384 11.0489 6.50304 10.5905C6.47223 10.1321 6.93621 9.55914 7.78295 9.50225C8.6297 9.44535 9.16616 9.9511 9.19696 10.4095Z" stroke="black"/>
  <path d="M13.1965 7.87268C13.0876 8.57465 12.8399 9.16192 12.5521 9.54499C12.2498 9.94742 11.9925 10.0233 11.8543 10.0019C11.716 9.98041 11.4938 9.83015 11.3276 9.35505C11.1694 8.90282 11.1112 8.26809 11.2201 7.56612C11.329 6.86415 11.5767 6.27687 11.8645 5.89381C12.1668 5.49138 12.4241 5.4155 12.5623 5.43695C12.7006 5.45839 12.9228 5.60865 13.089 6.08375C13.2472 6.53598 13.3054 7.17071 13.1965 7.87268Z" fill="#D9D9D9" stroke="black"/>
  <path d="M1.12143 10.5125L1.30658 10.4949C3.1664 10.1362 3.84959 4.39469 4.01101 1.48915L12.1214 6.01253C12.9214 7.61253 12.1214 9.01253 11.6214 9.51253L1.30658 10.4949C1.24611 10.5066 1.1844 10.5125 1.12143 10.5125Z" fill="#C1A236"/>
  <path d="M1.62143 10.4892L12.1214 9.48915C12.6214 8.98915 13.4214 7.58915 12.6214 5.98915L4.12143 1.48915" stroke="black"/>
  <path d="M3.90162 5.98448C3.59101 7.4412 3.13603 8.70322 2.66392 9.56411C2.42627 9.99748 2.19825 10.3033 2.00228 10.4836C1.90537 10.5727 1.83038 10.618 1.7803 10.6385C1.75646 10.6483 1.74111 10.6513 1.73339 10.6522C1.72953 10.6526 1.72717 10.6526 1.72604 10.6525L1.7241 10.6523L1.72223 10.6517C1.72118 10.6513 1.71902 10.6504 1.71568 10.6484C1.709 10.6444 1.6962 10.6354 1.67841 10.6168C1.64105 10.5777 1.59106 10.5057 1.53894 10.3848C1.43354 10.1403 1.35012 9.76801 1.30991 9.2754C1.23003 8.29681 1.3294 6.95897 1.64002 5.50224C1.95063 4.04552 2.40561 2.78351 2.87772 1.92261C3.11537 1.48925 3.34339 1.1834 3.53935 1.00314C3.63627 0.914 3.71126 0.868695 3.76134 0.848204C3.78518 0.838448 3.80053 0.835469 3.80825 0.834568C3.81211 0.834117 3.81447 0.834133 3.8156 0.834181L3.81754 0.834395L3.81941 0.834993C3.82046 0.835409 3.82262 0.836359 3.82596 0.838344C3.83264 0.842314 3.84544 0.851296 3.86323 0.869929C3.90059 0.909064 3.95058 0.981021 4.0027 1.10194C4.1081 1.34646 4.19152 1.71871 4.23173 2.21132C4.31161 3.18992 4.21224 4.52776 3.90162 5.98448Z" fill="#94843B" stroke="black"/>
</svg>
