<svg width="60" height="60" viewBox="0 0 60 60" fill="none" xmlns="http://www.w3.org/2000/svg">
<path d="M23.2434 16.9412L25.0066 10.0612L25.0217 9.9912C25.3018 8.6398 26.1757 7.4864 27.401 6.8512C29.3863 5.9712 31.531 7.3712 32.2051 9.9912L34.0237 17.0812L47.898 39.6612C49.2532 42.1605 51.817 43.7688 54.657 43.9012H57.0211C58.0391 44.0617 58.7484 44.9978 58.6276 46.0212L58.5523 50.8084C58.5523 51.913 57.8934 53.2913 56.7888 53.2913H53.9647L53.8854 48.4965H53.369C49.6472 48.4965 46.1913 46.5673 44.2381 43.3992L30.4471 21.0308H21.1587L22.2831 16.6578L23.2434 16.9412Z" fill="#1636C1"/>
<path d="M36.0947 42.9733L32.9366 39.2377L22.9374 22.9643V21.0308H30.4474C30.4474 21.0308 39.939 34.5745 42.9074 39.3887C44.8258 42.5002 45.8797 44.4187 47.65 45.6387C48.6531 46.5281 49.5961 47.4829 50.473 48.4969H53.8859V53.2877H41.4791L43.9262 50.303V45.901C43.9262 44.7964 43.0308 43.901 41.9262 43.901L36.0947 42.9733Z" fill="#899DD3"/>
<path d="M15.7457 21.0308H7.4939L10.3051 10.0608L10.3203 9.9908C10.6004 8.6394 11.4743 7.486 12.6996 6.8508C14.6849 5.9708 16.8296 7.3708 17.5037 9.9908L19.3223 17.0808L33.1966 39.6608C34.5518 42.1601 37.1156 43.7684 39.9556 43.9008H43.0004C43.5117 43.9008 43.9262 44.3153 43.9262 44.8266V51.3768C43.9262 51.8881 43.5117 52.3026 43.0004 52.3026L42.0165 53.2355H35.4614L15.7457 21.0308Z" fill="#4660A9"/>
<path d="M18.8609 31.751L12.5199 52.3026" stroke="#929292" stroke-width="2" stroke-linecap="round" stroke-linejoin="round"/>
<path d="M10.03 24.2428L1.37241 52.3026" stroke="#929292" stroke-width="2" stroke-linecap="round" stroke-linejoin="round"/>
<path d="M16.1376 27.8403H9.42572" stroke="#929292" stroke-width="2" stroke-linecap="round" stroke-linejoin="round"/>
<path d="M17.5954 34.2758H7.44052" stroke="#929292" stroke-width="2" stroke-linecap="round" stroke-linejoin="round"/>
<path d="M15.6102 40.7114H5.45529" stroke="#929292" stroke-width="2" stroke-linecap="round" stroke-linejoin="round"/>
<path d="M13.625 47.1469H3.47009" stroke="#929292" stroke-width="2" stroke-linecap="round" stroke-linejoin="round"/>
<path d="M42.119 39.962L30.447 21.031H22.115" stroke="#929292" stroke-width="2" stroke-linecap="round" stroke-linejoin="round"/>
<path d="M47.2028 52.3026H53.8854V48.4965H53.369C51.4315 48.4967 49.5302 47.972 47.8671 46.978" stroke="#929292" stroke-width="2" stroke-linecap="round" stroke-linejoin="round"/>
<path d="M23.2434 16.9412L25.0066 10.0612L25.0217 9.9912C25.3018 8.6398 26.1757 7.4864 27.401 6.8512C29.3863 5.9712 31.531 7.3712 32.2051 9.9912L34.0237 17.0812L47.898 39.6612C49.2532 42.1605 51.817 43.7688 54.657 43.9012H56.6276C57.7322 43.9012 58.6276 44.7966 58.6276 45.9012V50.303C58.6276 51.4076 57.7322 52.303 56.6276 52.303H53.8854" stroke="#929292" stroke-width="2" stroke-linecap="round" stroke-linejoin="round"/>
<path d="M15.7457 21.0308H7.4939L10.3051 10.0608L10.3203 9.9908C10.6004 8.6394 11.4743 7.486 12.6996 6.8508C14.6849 5.9708 16.8296 7.3708 17.5037 9.9908L19.3223 17.0808L33.1966 39.6608C34.5518 42.1601 37.1156 43.7684 39.9556 43.9008H41.9262C43.0308 43.9008 43.9262 44.7962 43.9262 45.9008V50.3026C43.9262 51.4072 43.0308 52.3026 41.9262 52.3026H35.0218L15.7457 21.0308Z" stroke="#929292" stroke-width="2" stroke-linecap="round" stroke-linejoin="round"/>
</svg>
